PathFileType	4	(X/Y/Z)	Trial12_Gait_LowerBody_markers_cropped.trc
DataRate	CameraRate	NumFrames	NumMarkers	Units	OrigDataRate	OrigDataStartFrame	OrigNumFrames
200	200	7	27	m	200	88	101
Frame#	Time	R_ASIS			L_ASIS			Sacral			L_Thigh_Superior			L_Thigh_Posterior			L_Thigh_Inferior			L_Thigh_Lateral			L_Shank_Posterior			L_Shank_Superior			L_Shank_Lateral			L_Shank_Inferior			L_Midfoot_Superior			L_Heel			L_Midfoot_Lateral			L_Toe			R_Thigh_Posterior			R_Thigh_Superior			R_Thigh_Lateral			R_Thigh_Inferior			R_Shank_Posterior			R_Shank_Superior			R_Shank_Lateral			R_Shank_Inferior			R_Midfoot_Superior			R_Heel			R_Midfoot_Lateral			R_Toe
		X1	Y1	Z1	X2	Y2	Z2	X3	Y3	Z3	X4	Y4	Z4	X5	Y5	Z5	X6	Y6	Z6	X7	Y7	Z7	X8	Y8	Z8	X9	Y9	Z9	X10	Y10	Z10	X11	Y11	Z11	X12	Y12	Z12	X13	Y13	Z13	X14	Y14	Z14	X15	Y15	Z15	X16	Y16	Z16	X17	Y17	Z17	X18	Y18	Z18	X19	Y19	Z19	X20	Y20	Z20	X21	Y21	Z21	X22	Y22	Z22	X23	Y23	Z23	X24	Y24	Z24	X25	Y25	Z25	X26	Y26	Z26	X27	Y27	Z27

89	   0.440	    0.80933237772830	    0.97678698070675	    0.59998642650618	    0.84048275404063	    0.97456316324117	    0.34948653763782	    0.63115133915432	    1.03613667196352	    0.46535684348309	    0.80093840543137	    0.73722564289240	    0.28422348086970	    0.72573504124982	    0.73294957823208	    0.28121677208371	    0.80113864533879	    0.64435270353402	    0.30437516335974	    0.72172220681536	    0.64497789997547	    0.29920723173880	    0.64293896574800	    0.38971900190826	    0.31681840480487	    0.71042769458496	    0.35591948216353	    0.32278352906802	    0.62325068106208	    0.32108103770323	    0.31642919096537	    0.68642251810832	    0.30286890702005	    0.32239732529798	    0.68593226158373	    0.09094370380037	    0.40833473350853	    0.51121103651773	    0.06456328537959	    0.44007422240042	    0.60441415348361	    0.03506733522781	    0.36891167433419	    0.80262608922224	    0.03155205316473	    0.40229009893848	    0.78531179708507	    0.77267428077115	    0.66784625999238	    0.85303276138378	    0.80425949224582	    0.65627914702238	    0.83284462890423	    0.68521677465444	    0.67360360924364	    0.89546358095661	    0.71952696419516	    0.66540845395919	    0.84775229991237	    0.40100006884471	    0.66028651997451	    0.92071968347782	    0.37883455025417	    0.65124344191833	    0.83481175901631	    0.33171822886332	    0.64857327961240	    0.90590407412709	    0.32147433319942	    0.64007500216704	    0.91248592947820	    0.11901470655797	    0.57656983425034	    0.73963066439385	    0.10745295191567	    0.53728502254327	    0.82448089906931	    0.06220728475993	    0.61676978374193	    1.02438540935582	    0.05390110104140	    0.59324889538735
90	   0.445	    0.80969017444327	    0.97639671140508	    0.60076379928914	    0.83950284363032	    0.97338691824643	    0.35016493515074	    0.63092721450588	    1.03582701729804	    0.46646156155461	    0.79690514996817	    0.73668283339546	    0.28474618823194	    0.72168109417002	    0.73327023801449	    0.28145998496796	    0.79578244693531	    0.64372863521970	    0.30509581846033	    0.71647461487806	    0.64537400836644	    0.29945723587613	    0.63379000991996	    0.39113257549635	    0.31702771161789	    0.70091391784901	    0.35657121304424	    0.32260120008577	    0.61329218980141	    0.32266164051901	    0.31653119474043	    0.67634025445456	    0.30381552417963	    0.32210307464805	    0.67399125303944	    0.09109248206135	    0.40809866917573	    0.49914628861819	    0.06679553949425	    0.43985712421639	    0.59204055930369	    0.03611895578705	    0.36867555361260	    0.78998024350226	    0.03138159541196	    0.40204780459677	    0.78475038448320	    0.77180764847539	    0.66846457241892	    0.85266076850077	    0.80321648736600	    0.65703893295271	    0.83198893210451	    0.68413431224718	    0.67368867060841	    0.89472758298416	    0.71822542247171	    0.66555107817405	    0.85349323697582	    0.39509379751073	    0.66081699647228	    0.92783442040048	    0.37780802087914	    0.65210391397668	    0.84525311079263	    0.32502853579413	    0.64946388694599	    0.91694570282927	    0.31954715714738	    0.64127198197191	    0.93837213523413	    0.11731509483724	    0.57853560329623	    0.76671563879861	    0.09343363709083	    0.53910317369277	    0.85445343245650	    0.05448336271332	    0.61890497328193	    1.05451314732295	    0.06027485609845	    0.59548544272358
91	   0.450	    0.81003302188005	    0.97574534089161	    0.60146757792846	    0.83868467598247	    0.97215260644210	    0.35087075904884	    0.63083282638390	    1.03533594829206	    0.46764653805250	    0.79299796046063	    0.73604954858982	    0.28527442487577	    0.71776292019412	    0.73356377982730	    0.28173009535880	    0.79058627154206	    0.64308311257503	    0.30575218235895	    0.71139797308905	    0.64574488941108	    0.29972585405259	    0.62491652600808	    0.39258977728292	    0.31725611162921	    0.69163390359378	    0.35724465377829	    0.32244318978513	    0.60356129739690	    0.32429902464191	    0.31665555227698	    0.66646025096015	    0.30478917575371	    0.32184363095452	    0.66211410334622	    0.09125718543427	    0.40784750653409	    0.48714632105317	    0.06917777293495	    0.43960681542502	    0.57969680758379	    0.03725565260924	    0.36842732854230	    0.77734121671588	    0.03124687646491	    0.40179106061521	    0.78369660958312	    0.77039617310645	    0.66884813763589	    0.85198973706820	    0.80135519810554	    0.65794335909889	    0.83019700355377	    0.68228235810702	    0.67335411976516	    0.89324171836191	    0.71586430667718	    0.66564206996662	    0.85876629726653	    0.38908389321600	    0.66115370133599	    0.93415975707560	    0.37675285771819	    0.65289435257128	    0.85529181089882	    0.31854779032108	    0.65015046644447	    0.92727962615674	    0.31786364307982	    0.64239922541463	    0.96358672195259	    0.11681654869882	    0.58055317664175	    0.79412959353639	    0.08084765947542	    0.54090265033549	    0.88416857440003	    0.04838039288728	    0.62101602702220	    1.08343652095864	    0.06821109401484	    0.59790838969435
92	   0.455	    0.81046788140758	    0.97488303551746	    0.60218012929936	    0.83805999784601	    0.97087720854492	    0.35156195350266	    0.63088423362498	    1.03465562352494	    0.46892562265344	    0.78925101137022	    0.73534499839862	    0.28576644781258	    0.71400366522328	    0.73383562184572	    0.28202662613026	    0.78559893644415	    0.64243055544491	    0.30632560196675	    0.70652651422458	    0.64609683745073	    0.30001553354118	    0.61639820342983	    0.39407532976755	    0.31750160704204	    0.68266855470405	    0.35790763387080	    0.32231893138872	    0.59414240524347	    0.32600234220088	    0.31678750980820	    0.65682610226579	    0.30575344268744	    0.32167268855401	    0.65033099180285	    0.09147398723740	    0.40752927989767	    0.47522779042452	    0.07171138859506	    0.43934966542004	    0.56738790752879	    0.03848095452546	    0.36817601008203	    0.76470672783982	    0.03112650043277	    0.40153713126227	    0.78222831807437	    0.76850740617041	    0.66908397237908	    0.85106172497064	    0.79869069442000	    0.65894693737052	    0.82751637326971	    0.67973166279087	    0.67270132506698	    0.89102251846416	    0.71246850058993	    0.66566065745629	    0.86362649037980	    0.38308328995475	    0.66130400910394	    0.93972391375580	    0.37570680082424	    0.65360421112776	    0.86489115785452	    0.31240215471275	    0.65065481655160	    0.93685019568454	    0.31647158512643	    0.64343072875423	    0.98777353488649	    0.11765192583032	    0.58255396377973	    0.82139984372673	    0.06998120483268	    0.54271454469825	    0.91315808572738	    0.04405997861828	    0.62308295049885	    1.11072039669910	    0.07764399759294	    0.60041562690708
93	   0.460	    0.81109283137840	    0.97385409529671	    0.60295850054957	    0.83760766422947	    0.96954622355272	    0.35224446327494	    0.63108239236848	    1.03377558368842	    0.47032164102250	    0.78570794057753	    0.73459135172961	    0.28618773342334	    0.71043498143919	    0.73407728596367	    0.28235338630626	    0.78087042483519	    0.64177031011756	    0.30679195923285	    0.70190164654964	    0.64640974694640	    0.30032810587967	    0.60830787671344	    0.39556551542104	    0.31776771697002	    0.67409007881101	    0.35851764131843	    0.32223826955683	    0.58510712903207	    0.32776349807439	    0.31691813001467	    0.64748542342040	    0.30666020529001	    0.32162368866375	    0.63865163584416	    0.09174827943884	    0.40713958034943	    0.46341276411431	    0.07440620291128	    0.43907630195473	    0.55512405161126	    0.03979947032870	    0.36792275286282	    0.75207170541707	    0.03100174267004	    0.40129858969156	    0.78046868733948	    0.76624892825703	    0.66929707602151	    0.84994961186033	    0.79532787562374	    0.65996051513240	    0.82410070913853	    0.67662932513635	    0.67194236230158	    0.88817067686001	    0.70818004603986	    0.66561265029188	    0.86809488054258	    0.37726896254047	    0.66131052784099	    0.94454983202057	    0.37475244209748	    0.65422772895493	    0.87396579195420	    0.30675727928595	    0.65102273359439	    0.94558798045604	    0.31543850085324	    0.64435590604716	    1.01056295486615	    0.11982014866210	    0.58443007156495	    0.84796389764325	    0.06101874292270	    0.54443962879387	    0.94091883183324	    0.04156165033180	    0.62502710249893	    1.13594105264411	    0.08835079222297	    0.60283798512647
94	   0.465	    0.81195225716968	    0.97266696646969	    0.60380003190240	    0.83730049274268	    0.96814397413823	    0.35292588438373	    0.63142046150675	    1.03269228206128	    0.47185316784349	    0.78240983314852	    0.73378696126892	    0.28652362843223	    0.70709368744412	    0.73426056522834	    0.28272153761129	    0.77644750772781	    0.64108096101560	    0.30713753151707	    0.69757384955360	    0.64664540667712	    0.30066060358382	    0.60070213784825	    0.39702848529353	    0.31806095958505	    0.66595379467579	    0.35903908772287	    0.32220372977980	    0.57650750881895	    0.32955719445410	    0.31704718084737	    0.63852458089165	    0.30749060488474	    0.32164853408704	    0.62707970352918	    0.09206617863046	    0.40670304460290	    0.45171687364846	    0.07727151937068	    0.43877781891427	    0.54291518226821	    0.04121841095281	    0.36766799803416	    0.73944084041282	    0.03085783394908	    0.40109337676008	    0.77856468380213	    0.76375221609701	    0.66960808067989	    0.84875124763767	    0.79144755630495	    0.66089211425804	    0.82019522749680	    0.67317982008320	    0.67137670877712	    0.88487503453030	    0.70325472147659	    0.66558370874338	    0.87214813452268	    0.37184818891508	    0.66123365891945	    0.94865381700108	    0.37397667872819	    0.65476909381390	    0.88239065364213	    0.30178183260296	    0.65129420909668	    0.95340939325412	    0.31481827425539	    0.64516553917811	    1.03156512635084	    0.12316203225503	    0.58602152516699	    0.87321565304291	    0.05399481232524	    0.54588902434162	    0.96694928235172	    0.04077141628797	    0.62669696353948	    1.15872244497283	    0.09996042074697	    0.60494280055127
95	   0.470	    0.81304100853337	    0.97130858698862	    0.60466637857697	    0.83712254099027	    0.96666918573984	    0.35360018857708	    0.63188989716412	    1.03141178065120	    0.47352139395557	    0.77938997552489	    0.73291946505784	    0.28679243778958	    0.70402298231279	    0.73435235936844	    0.28313889189722	    0.77238006587127	    0.64032885248571	    0.30738536739895	    0.69359989225035	    0.64677023227769	    0.30101781652399	    0.59362158175956	    0.39843734533338	    0.31838170990409	    0.65829444019944	    0.35944203599855	    0.32221552088165	    0.56837643893120	    0.33135395902633	    0.31718195913527	    0.63000014398327	    0.30823460628972	    0.32170921325686	    0.61561951222181	    0.09241401117184	    0.40624692530202	    0.44014657685565	    0.08032786237610	    0.43846255786988	    0.53076921181405	    0.04275474929105	    0.36741025805244	    0.72681325274908	    0.03068987949282	    0.40092672863234	    0.77667738071192	    0.76117238955899	    0.67010877676941	    0.84758287302189	    0.78727566079491	    0.66169715431290	    0.81609837864151	    0.66961848894330	    0.67131456530480	    0.88140345042770	    0.69803822193718	    0.66575801876787	    0.87576287343518	    0.36697097661392	    0.66115736173929	    0.95206825669337	    0.37340328076713	    0.65527415988772	    0.89002636890357	    0.29756742650867	    0.65149639436123	    0.96025013131074	    0.31459103958448	    0.64587216998378	    1.05039950514413	    0.12737120297896	    0.58717225719915	    0.89655769282544	    0.04878274348200	    0.54691717381111	    0.99075655710799	    0.04138079662399	    0.62790283971685	    1.17873779278926	    0.11197944619758	    0.60646734154479
